<svg aria-hidden="true" style="position: absolute; width: 0; height: 0; overflow: hidden;" version="1.1" xmlns="http://www.w3.org/2000/svg" xmlns:xlink="http://www.w3.org/1999/xlink">
<defs>
<symbol id="icon-currency-icon" viewBox="0 0 32 32">
<path fill="#4a56e2" style="fill: var(--color1, #4a56e2)" d="M5.053 0c-2.791 0-5.053 2.262-5.053 5.053v21.895c0 2.79 2.262 5.053 5.053 5.053h21.895c2.79 0 5.053-2.262 5.053-5.053v-21.895c0-2.791-2.262-5.053-5.053-5.053h-21.895zM13.265 13.136c0 0.995 0.765 1.635 3.144 2.253s4.925 1.635 4.925 4.61c0 2.148-1.624 3.332-3.667 3.72v2.253h-3.143v-2.274c-2.012-0.43-3.73-1.718-3.856-4.013h2.305c0.115 1.236 0.964 2.2 3.123 2.2 2.316 0 2.829-1.153 2.829-1.876 0-0.974-0.524-1.896-3.143-2.525-2.923-0.702-4.925-1.907-4.925-4.327 0-2.022 1.635-3.342 3.667-3.783v-2.263h3.143v2.295c2.19 0.534 3.29 2.19 3.363 3.992h-2.316c-0.063-1.31-0.754-2.2-2.619-2.2-1.771 0-2.829 0.796-2.829 1.938z"></path>
</symbol>
<symbol id="icon-calendar" viewBox="0 0 32 32">
<path fill="#4a56e2" style="fill: var(--color1, #4a56e2)" d="M11.2 14.4h-3.2v3.2h3.2v-3.2zM17.6 14.4h-3.2v3.2h3.2v-3.2zM24 14.4h-3.2v3.2h3.2v-3.2zM27.2 3.2h-1.6v-3.2h-3.2v3.2h-12.8v-3.2h-3.2v3.2h-1.6c-1.776 0-3.184 1.44-3.184 3.2l-0.016 22.4c0 1.76 1.424 3.2 3.2 3.2h22.4c1.76 0 3.2-1.44 3.2-3.2v-22.4c0-1.76-1.44-3.2-3.2-3.2zM27.2 28.8h-22.4v-17.6h22.4v17.6z"></path>
</symbol>
<symbol id="icon-home" viewBox="0 0 32 32">
<path fill="#fff" style="fill: var(--color2, #fff)" d="M3.556 0h24.889c1.964 0 3.556 1.592 3.556 3.556v24.889c0 1.964-1.592 3.556-3.556 3.556h-24.889c-1.964 0-3.556-1.592-3.556-3.556v-24.889c0-1.964 1.592-3.556 3.556-3.556z"></path>
<path fill="#4a56e2" style="fill: var(--color1, #4a56e2)" d="M3.556 0c-1.964 0-3.556 1.592-3.556 3.556v24.889c0 1.964 1.592 3.556 3.556 3.556h24.889c1.964 0 3.556-1.592 3.556-3.556v-24.889c0-1.964-1.592-3.556-3.556-3.556h-24.889zM13.866 17.986v6.902h-5.334v-9.202h-3.2l10.666-10.353 10.666 10.353h-3.2v9.202h-5.334v-6.902h-4.266z"></path>
</symbol>
<symbol id="icon-exit" viewBox="0 0 32 32">
<path fill="#bdbdbd" style="fill: var(--color3, #bdbdbd)" d="M20.051 23.237h2.499v4.997c0 2.067-1.681 3.748-3.748 3.748h-15.054c-2.066 0-3.748-1.681-3.748-3.748v-24.486c0-2.066 1.681-3.748 3.748-3.748h15.054c2.067 0 3.748 1.681 3.748 3.748v4.997h-2.499v-4.997c0-0.689-0.56-1.249-1.249-1.249h-15.054c-0.689 0-1.249 0.561-1.249 1.249v24.486c0 0.689 0.561 1.249 1.249 1.249h15.054c0.689 0 1.249-0.561 1.249-1.249v-4.997zM26.111 10.102l-1.767 1.767 2.873 2.874h-16.161v2.499h16.161l-2.873 2.873 1.767 1.767 5.889-5.889-5.889-5.89z"></path>
</symbol>
<symbol id="icon-statistics" viewBox="0 0 32 32">
<path fill="#4a56e2" style="fill: var(--color1, #4a56e2)" d="M3.556-0h24.889c1.964 0 3.556 1.592 3.556 3.556v24.889c0 1.964-1.592 3.556-3.556 3.556h-24.889c-1.964 0-3.556-1.592-3.556-3.556v-24.889c0-1.964 1.592-3.556 3.556-3.556zM26.182 13.63c1.244 0 2.263-1.067 2.263-2.37s-1.018-2.37-2.263-2.37-2.263 1.067-2.263 2.37c0 0.213 0.023 0.415 0.079 0.604l-4.016 4.219c-0.181-0.059-0.385-0.083-0.588-0.083s-0.407 0.024-0.588 0.083l-2.885-3.022c0.057-0.19 0.079-0.403 0.079-0.616 0-1.304-1.018-2.37-2.263-2.37s-2.263 1.067-2.263 2.37c0 0.213 0.023 0.427 0.079 0.616l-5.159 5.393c-0.181-0.059-0.373-0.083-0.577-0.083-1.244 0-2.263 1.067-2.263 2.37s1.018 2.37 2.263 2.37 2.263-1.067 2.263-2.37c0-0.213-0.023-0.415-0.079-0.604l5.148-5.404c0.181 0.059 0.385 0.083 0.588 0.083s0.407-0.024 0.588-0.083l2.885 3.022c-0.057 0.189-0.079 0.403-0.079 0.616 0 1.304 1.018 2.37 2.263 2.37s2.263-1.067 2.263-2.37c0-0.213-0.023-0.427-0.079-0.616l4.027-4.207c0.181 0.059 0.373 0.083 0.577 0.083z"></path>
</symbol>
<symbol id="icon-logo" viewBox="0 0 32 32">
<path fill="#24cca7" style="fill: var(--color4, #24cca7)" d="M3.755 7.619l16.211-4.537-0.859-1.779c-0.562-1.157-1.932-1.634-3.060-1.058l-14.513 7.375h2.219z"></path>
<path fill="#24cca7" style="fill: var(--color4, #24cca7)" d="M24.813 3.048c-0.195 0-0.391 0.029-0.586 0.087l-15.012 4.484h18.431l-0.693-2.779c-0.266-1.083-1.163-1.793-2.14-1.793z"></path>
<path fill="#4a56e2" style="fill: var(--color1, #4a56e2)" d="M28.36 8.573h-26.559c-0.568 0-1.074 0.26-1.405 0.67-0.151 0.189-0.266 0.406-0.331 0.645-0.040 0.15-0.065 0.307-0.065 0.467v19.862c0 0.984 0.805 1.783 1.797 1.783h26.559c0.992 0 1.797-0.799 1.797-1.783v-4.974h-10.662c-1.685 0-3.054-1.358-3.054-3.030v-3.965c0-0.82 0.331-1.565 0.866-2.111 0.474-0.485 1.11-0.813 1.822-0.895 0.119-0.014 0.241-0.021 0.363-0.021h10.666v-4.866c0.004-0.984-0.801-1.783-1.793-1.783z"></path>
<path fill="#4a56e2" style="fill: var(--color1, #4a56e2)" d="M31.414 16.926c-0.18-0.164-0.392-0.289-0.629-0.371-0.183-0.061-0.377-0.096-0.582-0.096h-10.712c-0.992 0-1.797 0.799-1.797 1.783v3.968c0 0.984 0.805 1.783 1.797 1.783h10.712c0.205 0 0.399-0.036 0.582-0.096 0.237-0.078 0.449-0.207 0.629-0.371 0.359-0.324 0.586-0.795 0.586-1.316v-3.968c0-0.521-0.226-0.991-0.586-1.316zM23.243 20.581c0 0.492-0.402 0.891-0.898 0.891h-0.596c-0.496 0-0.898-0.399-0.898-0.891v-0.592c0-0.285 0.133-0.538 0.345-0.699 0.155-0.118 0.345-0.193 0.553-0.193h0.596c0.496 0 0.898 0.399 0.898 0.891v0.592z"></path>
</symbol>
<symbol id="icon-account_box" viewBox="0 0 34 32">
<path  d="M0.889 3.556v24.889c0 1.956 1.582 3.556 3.556 3.556h24.889c1.956 0 3.556-1.6 3.556-3.556v-24.889c0-1.956-1.6-3.556-3.556-3.556h-24.889c-1.973 0-3.556 1.6-3.556 3.556zM22.222 10.667c0 2.951-2.382 5.333-5.333 5.333s-5.333-2.382-5.333-5.333c0-2.951 2.382-5.333 5.333-5.333s5.333 2.382 5.333 5.333zM6.222 24.889c0-3.556 7.111-5.511 10.667-5.511s10.667 1.956 10.667 5.511v1.778h-21.333v-1.778z"></path>
</symbol>
<symbol id="icon-lock" viewBox="0 0 26 32">
<path  d="M22.095 10.667h-1.524v-3.048c0-4.206-3.413-7.619-7.619-7.619s-7.619 3.413-7.619 7.619v3.048h-1.524c-1.676 0-3.048 1.371-3.048 3.048v15.238c0 1.676 1.371 3.048 3.048 3.048h18.286c1.676 0 3.048-1.371 3.048-3.048v-15.238c0-1.676-1.371-3.048-3.048-3.048zM12.952 24.381c-1.676 0-3.048-1.371-3.048-3.048s1.371-3.048 3.048-3.048c1.676 0 3.048 1.371 3.048 3.048s-1.371 3.048-3.048 3.048zM17.676 10.667h-9.448v-3.048c0-2.606 2.118-4.724 4.724-4.724s4.724 2.118 4.724 4.724v3.048z"></path>
</symbol>
<symbol id="icon-email" viewBox="0 0 42 32">
<path  d="M37 0h-32c-2.2 0-3.98 1.8-3.98 4l-0.020 24c0 2.2 1.8 4 4 4h32c2.2 0 4-1.8 4-4v-24c0-2.2-1.8-4-4-4zM37 8l-16 10-16-10v-4l16 10 16-10v4z"></path>
</symbol>
</defs>
</svg>
